<svg
    xmlns="http://www.w3.org/2000/svg"
    viewBox="0 0 51 50"
    id="vector">
    <path
        id="path"
        d="M 4 0 L 46.007 0 C 47.067 0 48.086 0.422 48.835 1.172 C 49.585 1.921 50.007 2.94 50.007 4 L 50.007 45.78 C 50.007 46.84 49.585 47.859 48.835 48.608 C 48.086 49.358 47.067 49.78 46.007 49.78 L 4 49.78 C 2.94 49.78 1.921 49.358 1.172 48.608 C 0.422 47.859 0 46.84 0 45.78 L 0 4 C 0 2.94 0.422 1.921 1.172 1.172 C 1.921 0.422 2.94 0 4 0 Z"
        fill="#79dde0"/>
    <path
        id="path_3"
        d="M 30.114 22.962 L 29.602 22.649 L 29.044 23.563 L 30.114 23.563 L 30.114 22.962 Z M 28.575 18.059 L 28.009 18.258 L 28.112 18.551 L 28.411 18.636 L 28.575 18.059 Z M 28.387 17.525 L 27.811 17.694 L 27.816 17.709 L 27.821 17.724 L 28.387 17.525 Z M 21.619 17.525 L 22.185 17.724 L 22.191 17.709 L 22.195 17.694 L 21.619 17.525 Z M 21.431 18.059 L 21.595 18.636 L 21.894 18.551 L 21.997 18.258 L 21.431 18.059 Z M 19.853 22.962 L 19.853 23.563 L 20.951 23.563 L 20.358 22.638 L 19.853 22.962 Z M 19.819 22.962 L 19.819 22.362 L 19.219 22.362 L 19.219 22.962 L 19.819 22.962 Z M 19.819 23.769 L 20.258 24.178 L 20.42 24.005 L 20.42 23.769 L 19.819 23.769 Z M 30.358 23.962 L 30.358 23.362 L 29.075 23.362 L 29.897 24.347 L 30.358 23.962 Z M 30.586 23.962 L 30.586 24.563 L 31.186 24.563 L 31.186 23.962 L 30.586 23.962 Z M 30.586 22.962 L 31.186 22.962 L 31.186 22.362 L 30.586 22.362 L 30.586 22.962 Z M 30.043 21.154 C 30.043 21.677 29.865 22.22 29.602 22.649 L 30.626 23.276 C 30.986 22.688 31.243 21.931 31.243 21.154 L 30.043 21.154 Z M 28.411 18.636 C 29.239 18.871 30.043 19.882 30.043 21.154 L 31.243 21.154 C 31.243 19.438 30.167 17.887 28.739 17.482 L 28.411 18.636 Z M 27.821 17.724 L 28.009 18.258 L 29.141 17.859 L 28.953 17.326 L 27.821 17.724 Z M 27.223 13.682 C 27.223 15.023 27.42 16.361 27.811 17.694 L 28.963 17.356 C 28.602 16.128 28.423 14.904 28.423 13.682 L 27.223 13.682 Z M 25.003 11.08 C 26.2 11.08 27.223 12.125 27.223 13.682 L 28.423 13.682 C 28.423 11.61 27.002 9.88 25.003 9.88 L 25.003 11.08 Z M 22.783 13.682 C 22.783 12.125 23.806 11.08 25.003 11.08 L 25.003 9.88 C 23.004 9.88 21.583 11.61 21.583 13.682 L 22.783 13.682 Z M 22.195 17.694 C 22.586 16.361 22.783 15.023 22.783 13.682 L 21.583 13.682 C 21.583 14.904 21.404 16.128 21.044 17.356 L 22.195 17.694 Z M 21.997 18.258 L 22.185 17.724 L 21.053 17.326 L 20.865 17.859 L 21.997 18.258 Z M 19.963 21.154 C 19.963 19.882 20.767 18.871 21.595 18.636 L 21.267 17.482 C 19.839 17.887 18.763 19.438 18.763 21.154 L 19.963 21.154 Z M 20.358 22.638 C 20.105 22.244 19.963 21.711 19.963 21.154 L 18.763 21.154 C 18.763 21.897 18.948 22.664 19.348 23.287 L 20.358 22.638 Z M 19.819 23.563 L 19.853 23.563 L 19.853 22.362 L 19.819 22.362 L 19.819 23.563 Z M 20.42 23.769 L 20.42 22.962 L 19.219 22.962 L 19.219 23.769 L 20.42 23.769 Z M 19.023 27.559 C 19.023 26.193 19.485 25.009 20.258 24.178 L 19.38 23.36 C 18.378 24.437 17.823 25.924 17.823 27.559 L 19.023 27.559 Z M 19.023 33.963 L 19.023 27.559 L 17.823 27.559 L 17.823 33.963 L 19.023 33.963 Z M 19.023 38.302 L 19.023 33.963 L 17.823 33.963 L 17.823 38.302 L 19.023 38.302 Z M 19.423 38.7 C 19.201 38.7 19.023 38.522 19.023 38.302 L 17.823 38.302 C 17.823 39.186 18.541 39.9 19.423 39.9 L 19.423 38.7 Z M 23.123 38.7 L 19.423 38.7 L 19.423 39.9 L 23.123 39.9 L 23.123 38.7 Z M 26.883 38.7 L 23.123 38.7 L 23.123 39.9 L 26.883 39.9 L 26.883 38.7 Z M 30.583 38.7 L 26.883 38.7 L 26.883 39.9 L 30.583 39.9 L 30.583 38.7 Z M 30.983 38.302 C 30.983 38.521 30.805 38.7 30.583 38.7 L 30.583 39.9 C 31.466 39.9 32.183 39.186 32.183 38.302 L 30.983 38.302 Z M 30.983 33.963 L 30.983 38.302 L 32.183 38.302 L 32.183 33.963 L 30.983 33.963 Z M 30.983 27.559 L 30.983 33.963 L 32.183 33.963 L 32.183 27.559 L 30.983 27.559 Z M 29.897 24.347 C 30.58 25.165 30.983 26.283 30.983 27.559 L 32.183 27.559 C 32.183 26.031 31.699 24.633 30.818 23.578 L 29.897 24.347 Z M 30.586 23.362 L 30.358 23.362 L 30.358 24.563 L 30.586 24.563 L 30.586 23.362 Z M 29.986 22.962 L 29.986 23.962 L 31.186 23.962 L 31.186 22.962 L 29.986 22.962 Z M 30.114 23.563 L 30.586 23.563 L 30.586 22.362 L 30.114 22.362 L 30.114 23.563 Z M 19.577 36.552 L 21.457 36.552 L 21.457 35.352 L 19.577 35.352 L 19.577 36.552 Z M 18.037 35.686 C 18.037 35.99 18.222 36.184 18.348 36.278 C 18.474 36.37 18.616 36.423 18.732 36.456 C 18.97 36.524 19.266 36.552 19.577 36.552 L 19.577 35.352 C 19.324 35.352 19.15 35.328 19.059 35.302 C 19.01 35.288 19.023 35.284 19.061 35.312 C 19.099 35.34 19.237 35.461 19.237 35.686 L 18.037 35.686 Z M 19.577 34.819 C 19.266 34.819 18.97 34.847 18.732 34.915 C 18.616 34.948 18.474 35.001 18.348 35.094 C 18.222 35.187 18.037 35.381 18.037 35.686 L 19.237 35.686 C 19.237 35.91 19.099 36.031 19.061 36.059 C 19.023 36.087 19.01 36.083 19.059 36.069 C 19.15 36.043 19.324 36.019 19.577 36.019 L 19.577 34.819 Z M 21.457 34.819 L 19.577 34.819 L 19.577 36.019 L 21.457 36.019 L 21.457 34.819 Z M 22.997 35.686 C 22.997 35.381 22.812 35.187 22.686 35.094 C 22.56 35.001 22.418 34.948 22.302 34.915 C 22.064 34.847 21.768 34.819 21.457 34.819 L 21.457 36.019 C 21.71 36.019 21.884 36.043 21.975 36.069 C 22.024 36.083 22.011 36.087 21.973 36.059 C 21.935 36.031 21.797 35.91 21.797 35.686 L 22.997 35.686 Z M 21.457 36.552 C 21.768 36.552 22.064 36.524 22.302 36.456 C 22.418 36.423 22.56 36.37 22.686 36.278 C 22.812 36.184 22.997 35.99 22.997 35.686 L 21.797 35.686 C 21.797 35.461 21.935 35.34 21.973 35.312 C 22.011 35.284 22.024 35.288 21.975 35.302 C 21.884 35.328 21.71 35.352 21.457 35.352 L 21.457 36.552 Z M 19.237 32.532 C 19.237 32.756 19.099 32.877 19.061 32.905 C 19.023 32.933 19.01 32.93 19.059 32.916 C 19.15 32.89 19.324 32.865 19.577 32.865 L 19.577 31.665 C 19.266 31.665 18.97 31.694 18.732 31.761 C 18.616 31.794 18.474 31.847 18.348 31.94 C 18.222 32.033 18.037 32.228 18.037 32.532 L 19.237 32.532 Z M 19.577 32.199 C 19.324 32.199 19.15 32.174 19.059 32.148 C 19.01 32.134 19.023 32.13 19.061 32.158 C 19.099 32.187 19.237 32.308 19.237 32.532 L 18.037 32.532 C 18.037 32.836 18.222 33.03 18.348 33.124 C 18.474 33.217 18.616 33.27 18.732 33.303 C 18.97 33.37 19.266 33.399 19.577 33.399 L 19.577 32.199 Z M 20.517 32.199 L 19.577 32.199 L 19.577 33.399 L 20.517 33.399 L 20.517 32.199 Z M 20.857 32.532 C 20.857 32.308 20.995 32.187 21.033 32.158 C 21.071 32.13 21.083 32.134 21.035 32.148 C 20.944 32.174 20.77 32.199 20.517 32.199 L 20.517 33.399 C 20.828 33.399 21.124 33.37 21.362 33.303 C 21.478 33.27 21.62 33.217 21.746 33.124 C 21.872 33.03 22.057 32.836 22.057 32.532 L 20.857 32.532 Z M 20.517 32.865 C 20.77 32.865 20.944 32.89 21.035 32.916 C 21.083 32.93 21.071 32.933 21.033 32.905 C 20.995 32.877 20.857 32.756 20.857 32.532 L 22.057 32.532 C 22.057 32.228 21.872 32.033 21.746 31.94 C 21.62 31.847 21.478 31.794 21.362 31.761 C 21.124 31.694 20.828 31.665 20.517 31.665 L 20.517 32.865 Z M 19.577 32.865 L 20.517 32.865 L 20.517 31.665 L 19.577 31.665 L 19.577 32.865 Z M 19.577 30.245 L 21.457 30.245 L 21.457 29.045 L 19.577 29.045 L 19.577 30.245 Z M 18.037 29.378 C 18.037 29.682 18.222 29.877 18.348 29.97 C 18.474 30.063 18.616 30.116 18.732 30.149 C 18.97 30.216 19.266 30.245 19.577 30.245 L 19.577 29.045 C 19.324 29.045 19.15 29.02 19.059 28.994 C 19.01 28.98 19.023 28.977 19.061 29.005 C 19.099 29.033 19.237 29.154 19.237 29.378 L 18.037 29.378 Z M 19.577 28.511 C 19.266 28.511 18.97 28.54 18.732 28.608 C 18.616 28.64 18.474 28.693 18.348 28.786 C 18.222 28.879 18.037 29.074 18.037 29.378 L 19.237 29.378 C 19.237 29.602 19.099 29.723 19.061 29.752 C 19.023 29.78 19.01 29.776 19.059 29.762 C 19.15 29.736 19.324 29.711 19.577 29.711 L 19.577 28.511 Z M 21.457 28.511 L 19.577 28.511 L 19.577 29.711 L 21.457 29.711 L 21.457 28.511 Z M 22.997 29.378 C 22.997 29.074 22.812 28.879 22.686 28.786 C 22.56 28.693 22.418 28.64 22.302 28.608 C 22.064 28.54 21.768 28.511 21.457 28.511 L 21.457 29.711 C 21.71 29.711 21.884 29.736 21.975 29.762 C 22.024 29.776 22.011 29.78 21.973 29.752 C 21.935 29.723 21.797 29.602 21.797 29.378 L 22.997 29.378 Z M 21.457 30.245 C 21.768 30.245 22.064 30.216 22.302 30.149 C 22.418 30.116 22.56 30.063 22.686 29.97 C 22.812 29.877 22.997 29.682 22.997 29.378 L 21.797 29.378 C 21.797 29.154 21.935 29.033 21.973 29.005 C 22.011 28.977 22.024 28.98 21.975 28.994 C 21.884 29.02 21.71 29.045 21.457 29.045 L 21.457 30.245 Z"
        fill="#ffffff"/>
    <path
        id="path_4"
        d="M 4 0 L 46 0 C 47.06 0 48.079 0.422 48.828 1.172 C 49.578 1.921 50 2.94 50 4 L 50 45.774 C 50 46.834 49.578 47.853 48.828 48.602 C 48.079 49.352 47.06 49.774 46 49.774 L 4 49.774 C 2.94 49.774 1.921 49.352 1.172 48.602 C 0.422 47.853 0 46.834 0 45.774 L 0 4 C 0 2.94 0.422 1.921 1.172 1.172 C 1.921 0.422 2.94 0 4 0 Z"
        fill="#79dde0"/>
    <path
        id="path_5"
        d="M 14.886 26.956 C 14.31 26.021 14.008 24.963 14.01 23.887 C 14.014 20.699 16.621 18.029 20.048 17.707 C 20.081 17.354 20.149 17.005 20.251 16.663 C 19.612 16.502 19.112 16.039 18.939 15.447 C 18.766 14.855 18.945 14.222 19.409 13.784 L 20.611 12.633 C 19.612 12.554 18.858 11.762 18.897 10.835 C 18.938 9.908 19.758 9.174 20.761 9.169 L 25.005 9.169 C 25.761 9.162 26.448 9.576 26.746 10.219 C 27.044 10.862 26.896 11.609 26.37 12.111 L 26.75 12.111 C 28.652 12.108 30.464 12.859 31.728 14.174 L 35.647 14.174 C 36.131 14.171 36.597 14.345 36.944 14.658 C 37.304 14.976 37.512 15.415 37.522 15.876 C 37.533 16.338 37.344 16.784 36.998 17.116 L 35.796 18.267 C 36.529 18.323 37.158 18.77 37.406 19.411 C 39.383 21.163 40.011 23.852 38.992 26.204 C 37.972 28.556 35.511 30.098 32.774 30.099 L 20.693 30.099 C 19.821 31.176 18.306 31.619 16.925 31.203 C 15.543 30.786 14.601 29.602 14.581 28.257 C 14.578 27.808 14.683 27.363 14.886 26.956 Z M 36.007 16.229 C 36.207 16.041 36.207 15.739 36.007 15.55 C 35.909 15.466 35.78 15.419 35.647 15.418 L 31.382 15.418 C 31.097 15.418 30.866 15.632 30.866 15.896 C 30.866 16.16 31.097 16.374 31.382 16.374 L 32.828 16.374 C 33.101 16.374 33.347 16.525 33.453 16.758 C 33.561 16.99 33.508 17.261 33.317 17.443 L 31.008 19.65 C 30.916 19.742 30.865 19.863 30.866 19.989 C 30.864 20.118 30.921 20.241 31.022 20.329 C 31.118 20.416 31.248 20.463 31.382 20.461 L 35.633 20.461 C 35.77 20.461 35.901 20.41 35.998 20.321 C 36.095 20.231 36.149 20.11 36.149 19.983 C 36.153 19.855 36.1 19.732 36.002 19.641 C 35.905 19.551 35.771 19.502 35.633 19.505 L 34.187 19.505 C 33.917 19.502 33.674 19.351 33.57 19.12 C 33.465 18.889 33.518 18.624 33.704 18.443 L 36.007 16.229 Z M 30.221 14.545 C 29.785 14.876 29.535 15.374 29.542 15.896 C 29.545 16.801 30.293 17.553 31.267 17.632 L 30.071 18.776 C 29.539 19.276 29.386 20.024 29.684 20.669 C 29.982 21.314 30.671 21.729 31.429 21.718 L 35.694 21.718 C 36.283 21.717 36.837 21.458 37.188 21.02 C 38.347 22.532 38.497 24.516 37.578 26.162 C 36.659 27.809 34.824 28.843 32.822 28.842 L 20.72 28.842 L 20.374 28.842 C 20.11 28.827 19.861 28.954 19.735 29.169 C 19.277 29.896 18.352 30.254 17.471 30.045 C 16.589 29.837 15.964 29.112 15.939 28.27 C 15.939 27.919 16.045 27.575 16.244 27.276 C 16.385 27.071 16.385 26.809 16.244 26.604 C 15.173 25.081 15.089 23.137 16.024 21.54 C 16.959 19.942 18.764 18.946 20.727 18.946 C 20.907 18.947 21.081 18.881 21.209 18.763 C 21.336 18.645 21.407 18.484 21.406 18.317 C 21.401 17.772 21.493 17.231 21.677 16.714 L 25.005 16.714 C 25.876 16.71 26.63 16.152 26.824 15.366 C 27.019 14.58 26.603 13.773 25.82 13.419 C 26.12 13.368 26.425 13.343 26.73 13.344 C 28.012 13.342 29.251 13.769 30.221 14.545 Z M 22.689 12.451 L 20.387 14.658 C 20.295 14.746 20.242 14.862 20.238 14.985 C 20.241 15.113 20.3 15.236 20.401 15.324 C 20.497 15.411 20.626 15.458 20.761 15.456 L 25.005 15.456 C 25.207 15.487 25.409 15.404 25.521 15.245 C 25.632 15.087 25.632 14.882 25.521 14.724 C 25.409 14.565 25.207 14.482 25.005 14.513 L 23.538 14.513 C 23.266 14.513 23.02 14.362 22.913 14.13 C 22.808 13.898 22.862 13.632 23.049 13.45 L 25.358 11.237 C 25.456 11.148 25.511 11.025 25.511 10.898 C 25.511 10.77 25.456 10.648 25.358 10.558 C 25.262 10.475 25.136 10.428 25.005 10.426 L 20.761 10.426 C 20.476 10.426 20.244 10.64 20.244 10.904 C 20.244 11.168 20.476 11.382 20.761 11.382 L 22.2 11.382 C 22.475 11.38 22.723 11.532 22.83 11.766 C 22.937 11.999 22.881 12.27 22.689 12.451 Z"
        fill="#000000"
        fill-rule="evenodd"/>
    <path
        id="path_6"
        d="M 13.148 35.909 C 11.7 35.909 10.526 34.822 10.526 33.482 C 10.526 32.141 11.7 31.055 13.148 31.055 C 14.595 31.055 15.769 32.141 15.769 33.482 C 15.769 34.822 14.595 35.909 13.148 35.909 Z M 13.623 34.563 C 14.096 34.382 14.404 33.955 14.404 33.482 C 14.406 33.172 14.274 32.875 14.039 32.655 C 13.803 32.436 13.482 32.312 13.148 32.312 C 12.636 32.31 12.174 32.593 11.976 33.03 C 11.778 33.467 11.885 33.971 12.245 34.306 C 12.606 34.642 13.15 34.743 13.623 34.563 Z"
        fill="#000000"
        fill-rule="evenodd"/>
    <path
        id="path_7"
        d="M 14.73 36.657 C 15.905 36.66 16.856 37.543 16.856 38.631 C 16.854 39.158 16.626 39.661 16.222 40.032 C 15.818 40.402 15.271 40.609 14.703 40.605 C 13.528 40.595 12.583 39.707 12.591 38.619 C 12.598 37.531 13.555 36.654 14.73 36.657 Z M 14.432 37.967 C 14.14 38.077 13.949 38.34 13.949 38.631 L 13.929 38.631 C 13.929 38.821 14.01 39.004 14.155 39.138 C 14.301 39.272 14.498 39.348 14.703 39.348 C 15.018 39.355 15.306 39.186 15.432 38.919 C 15.559 38.652 15.498 38.34 15.278 38.131 C 15.058 37.922 14.724 37.858 14.432 37.967 Z"
        fill="#000000"
        fill-rule="evenodd"/>
    <path
        id="path_15"
        d="M 20.677 21.52 C 20.719 20.592 21.543 19.859 22.547 19.857 L 26.812 19.857 C 27.296 19.856 27.761 20.03 28.109 20.341 C 28.469 20.66 28.677 21.099 28.687 21.56 C 28.698 22.021 28.509 22.468 28.163 22.8 L 26.961 23.95 C 27.96 24.029 28.715 24.821 28.675 25.749 C 28.635 26.676 27.814 27.41 26.812 27.415 L 22.547 27.415 C 22.06 27.419 21.591 27.245 21.243 26.931 C 20.884 26.611 20.677 26.172 20.668 25.711 C 20.659 25.249 20.849 24.804 21.195 24.472 L 22.391 23.322 C 21.391 23.243 20.635 22.448 20.677 21.52 Z M 27.158 21.926 C 27.251 21.834 27.302 21.712 27.301 21.586 L 27.328 21.574 C 27.321 21.449 27.263 21.332 27.165 21.247 C 27.071 21.161 26.944 21.114 26.812 21.115 L 22.547 21.115 C 22.262 21.115 22.031 21.329 22.031 21.593 C 22.031 21.857 22.262 22.07 22.547 22.07 L 24 22.07 C 24.274 22.069 24.522 22.22 24.629 22.454 C 24.736 22.688 24.681 22.958 24.489 23.139 L 22.187 25.346 C 22.089 25.436 22.034 25.558 22.034 25.686 C 22.034 25.813 22.089 25.935 22.187 26.025 C 22.283 26.112 22.413 26.159 22.547 26.157 L 26.784 26.157 C 27.069 26.157 27.301 25.943 27.301 25.679 C 27.301 25.415 27.069 25.201 26.784 25.201 L 25.338 25.201 C 25.064 25.203 24.816 25.052 24.709 24.818 C 24.602 24.584 24.657 24.314 24.849 24.133 L 27.158 21.926 Z"
        fill="#000000"
        fill-rule="evenodd"/>
</svg>
