<svg
    xmlns="http://www.w3.org/2000/svg"
    viewBox="0 0 160 45"
    id="vector">
    <defs>
        <clipPath id="clip_path">
            <path d="M 0 0 L 160 0 L 160 45 L 0 45 Z"/>
        </clipPath>
        <clipPath id="clip_path_1">
            <path d="M 0 0 L 160 0 L 160 45 L 0 45 Z"/>
        </clipPath>
        <clipPath id="clip_path_2">
            <path d="M 0 0 L 160 0 L 160 45 L 0 45 Z"/>
        </clipPath>
        <clipPath id="clip_path_3">
            <path d="M 0 0 L 160 0 L 160 45 L 0 45 Z"/>
        </clipPath>
        <clipPath id="clip_path_4">
            <path d="M 0 0 L 160 0 L 160 45 L 0 45 Z"/>
        </clipPath>
        <clipPath id="clip_path_5">
            <path d="M 0 0 L 160 0 L 160 45 L 0 45 Z"/>
        </clipPath>
        <clipPath id="clip_path_6">
            <path d="M 0 0 L 160 0 L 160 45 L 0 45 Z"/>
        </clipPath>
        <clipPath id="clip_path_7">
            <path d="M 0 0 L 160 0 L 160 45 L 0 45 Z"/>
        </clipPath>
        <clipPath id="clip_path_8">
            <path d="M 0 0 L 160 0 L 160 45 L 0 45 Z"/>
        </clipPath>
        <clipPath id="clip_path_9">
            <path d="M 0 0 L 160 0 L 160 45 L 0 45 Z"/>
        </clipPath>
        <clipPath id="clip_path_10">
            <path d="M 0 0 L 160 0 L 160 45 L 0 45 Z"/>
        </clipPath>
        <clipPath id="clip_path_11">
            <path d="M 0 0 L 160 0 L 160 45 L 0 45 Z"/>
        </clipPath>
    </defs>
    <g id="group">
        <path
            id="path"
            clip-path="url(#clip_path)"
            d="M 1.71 20.89 C 2.38 12.99 11.01 10.31 16.02 13.94 C 15.89 13.97 15.79 14.04 15.66 14.07 C 13.92 14.89 12.18 17.16 11.07 21.02 C 9.43 26.99 9.83 35.71 10.24 44.56 L 10.24 44.97 C 5.72 36.05 1.17 27.26 1.71 20.89 Z M 17.43 15.19 C 18.57 16.51 19.34 18.28 19.54 20.55 C 19.94 24.65 18.2 29.77 15.76 35.3 C 14.48 37.91 13.08 40.63 11.64 43.34 C 11.27 35 11.01 26.93 12.51 21.43 C 13.45 18.01 14.89 16.07 16.26 15.43 C 16.66 15.26 17.03 15.16 17.4 15.19 L 17.43 15.19 Z"
            fill="#ff2e53"
            fill-rule="evenodd"/>
        <path
            id="path_1"
            clip-path="url(#clip_path_1)"
            d="M 6.22 0.64 C 10.5 -0.88 14.72 0.34 15.66 3.32 C 16.59 6.34 13.88 10 9.6 11.53 C 5.32 13.06 1.1 11.83 0.17 8.85 C -0.77 5.87 1.97 2.17 6.22 0.64 Z"
            fill="#0e0f5f"
            fill-rule="evenodd"/>
        <path
            id="path_2"
            clip-path="url(#clip_path_2)"
            d="M 20.07 23.5 C 20.67 20.01 20.14 17.46 19.07 16.14 C 18.67 15.67 18.23 15.36 17.76 15.26 C 17.29 15.12 16.79 15.19 16.26 15.43 C 14.85 16.07 13.45 18.01 12.51 21.43 C 11.01 26.93 11.27 35 11.64 43.34 C 15.49 36.08 19.1 29.03 20.07 23.5 Z"
            fill="#0e0f5f"
            fill-rule="evenodd"/>
        <path
            id="path_3"
            clip-path="url(#clip_path_3)"
            d="M 23.22 10.99 C 24.49 12.95 24.35 15.23 22.91 16.07 C 21.48 16.89 19.27 15.97 18.03 14.01 C 16.76 12.04 16.89 9.77 18.33 8.92 C 19.77 8.07 21.94 9.02 23.22 10.99 Z"
            fill="#0e0f5f"
            fill-rule="evenodd"/>
        <path
            id="path_4"
            clip-path="url(#clip_path_4)"
            d="M 39.94 12 L 39.94 17.4 C 40.44 16.55 41.15 15.84 42.08 15.29 C 42.89 14.85 43.86 14.62 44.99 14.62 C 47.07 14.62 48.77 15.5 50.11 17.23 C 51.45 18.96 52.12 21.23 52.12 24.01 C 52.12 26.79 51.45 29.06 50.11 30.79 C 49.44 31.64 48.54 32.25 47.43 32.62 C 46.3 33 45.19 33.2 44.09 33.2 C 41.98 33.2 40.01 32.62 38.17 31.5 C 36.36 30.38 35.46 28.21 35.46 25.06 L 35.46 9.7 L 37.7 9.7 C 38.34 9.7 38.84 9.94 39.31 10.38 C 39.74 10.82 39.97 11.36 39.97 12 L 39.94 12 Z M 47.5 23.84 C 47.5 22.21 47.17 20.96 46.5 20.08 C 45.83 19.13 44.93 18.65 43.79 18.65 C 42.55 18.65 41.58 19.09 40.95 20.01 C 40.28 20.96 39.94 22.21 39.94 23.84 C 39.94 25.7 40.24 27.09 40.88 27.94 C 41.55 28.89 42.48 29.37 43.65 29.37 C 44.83 29.37 45.83 28.89 46.5 27.94 C 47.17 26.99 47.5 25.64 47.5 23.84 Z"
            fill="#0e0f5f"/>
        <path
            id="path_5"
            clip-path="url(#clip_path_5)"
            d="M 64.19 32.18 C 63.26 32.69 62.29 33 61.25 33.1 C 60.21 33.2 59.28 33.27 58.51 33.27 C 56.9 33.27 55.53 32.83 54.33 31.94 C 53.12 31.06 52.52 29.64 52.52 27.6 C 52.52 25.7 53.05 24.38 54.16 23.57 C 55.23 22.75 56.63 22.21 58.31 21.94 C 58.54 21.94 58.78 21.91 59.11 21.84 C 59.41 21.77 59.78 21.7 60.18 21.67 C 62.12 21.4 63.09 20.82 63.09 19.94 C 63.09 19.26 62.76 18.82 62.05 18.62 C 61.35 18.41 60.75 18.31 60.15 18.31 C 59.51 18.31 58.98 18.41 58.47 18.58 C 57.97 18.75 57.64 19.09 57.4 19.6 L 52.95 19.6 C 53.12 18.21 53.76 17.06 54.83 16.18 C 56.03 15.16 57.74 14.62 59.95 14.62 C 62.42 14.62 64.29 15.06 65.53 15.9 C 66.8 16.79 67.47 18.04 67.47 19.67 L 67.47 25.81 C 67.47 27.6 67.14 28.99 66.5 30.01 C 65.87 31.03 65.1 31.74 64.23 32.22 L 64.19 32.18 Z M 63.12 23.91 C 62.49 24.21 61.65 24.52 60.55 24.79 L 59.01 25.13 C 58.21 25.37 57.64 25.64 57.27 26.01 C 56.97 26.52 56.8 26.99 56.8 27.5 C 56.8 28.18 57 28.72 57.4 29.13 C 57.8 29.47 58.37 29.67 59.14 29.67 C 60.38 29.67 61.35 29.33 62.05 28.59 C 62.76 27.88 63.12 26.89 63.12 25.64 L 63.12 23.94 L 63.12 23.91 Z"
            fill="#0e0f5f"/>
        <path
            id="path_6"
            clip-path="url(#clip_path_6)"
            d="M 72.62 12 L 72.62 17.4 C 73.13 16.55 73.83 15.84 74.77 15.29 C 75.57 14.85 76.54 14.62 77.68 14.62 C 79.75 14.62 81.46 15.5 82.79 17.23 C 84.13 18.96 84.8 21.23 84.8 24.01 C 84.8 26.79 84.13 29.06 82.79 30.79 C 82.12 31.64 81.22 32.25 80.12 32.62 C 78.98 33 77.88 33.2 76.77 33.2 C 74.66 33.2 72.69 32.62 70.85 31.5 C 69.04 30.38 68.14 28.21 68.14 25.06 L 68.14 9.7 L 70.38 9.7 C 71.02 9.7 71.52 9.94 71.99 10.38 C 72.42 10.82 72.66 11.36 72.66 12 L 72.62 12 Z M 80.18 23.84 C 80.18 22.21 79.85 20.96 79.18 20.08 C 78.51 19.13 77.61 18.65 76.47 18.65 C 75.23 18.65 74.26 19.09 73.63 20.01 C 72.96 20.96 72.62 22.21 72.62 23.84 C 72.62 25.7 72.93 27.09 73.56 27.94 C 74.23 28.89 75.17 29.37 76.34 29.37 C 77.51 29.37 78.51 28.89 79.18 27.94 C 79.85 26.99 80.18 25.64 80.18 23.84 Z"
            fill="#0e0f5f"/>
        <path
            id="path_7"
            clip-path="url(#clip_path_7)"
            d="M 88.08 39.27 L 88.08 35.57 L 89.35 35.57 C 90.22 35.57 90.92 35.37 91.42 34.93 C 91.93 34.49 92.03 33.81 91.72 32.86 L 85.54 15.02 L 90.65 15.02 L 94.23 27.67 L 97.34 16.65 C 97.61 15.57 98.31 15.02 99.49 15.02 L 102.66 15.02 L 95.91 35.4 C 95.37 36.9 94.7 37.95 93.9 38.56 C 93.1 39.1 91.79 39.37 89.99 39.37 L 89.05 39.37 C 89.05 39.37 88.75 39.3 88.55 39.27 C 88.35 39.27 88.18 39.27 88.04 39.27 L 88.08 39.27 Z"
            fill="#0e0f5f"/>
        <path
            id="path_8"
            clip-path="url(#clip_path_8)"
            d="M 114.47 27.4 L 117.78 27.4 C 117.28 29.3 116.38 30.72 115.01 31.71 C 113.64 32.72 111.9 33.27 109.82 33.27 C 107.31 33.27 105.34 32.45 103.9 30.76 C 102.5 29.13 101.79 26.82 101.79 23.84 C 101.79 20.86 102.46 18.72 103.87 17.13 C 105.27 15.46 107.25 14.65 109.79 14.65 C 112.43 14.65 114.51 15.46 115.94 17.06 C 116.75 18.04 117.32 19.19 117.68 20.48 L 113.03 20.48 C 112.8 20.04 112.6 19.7 112.36 19.47 C 111.8 18.85 110.96 18.52 109.89 18.52 C 108.92 18.52 108.12 18.82 107.51 19.47 C 106.71 20.38 106.31 21.84 106.31 23.91 C 106.31 25.98 106.71 27.43 107.51 28.28 C 108.08 28.99 108.95 29.37 110.09 29.37 C 110.83 29.37 111.5 29.2 112.03 28.89 C 112.16 28.86 112.3 28.76 112.4 28.65 C 112.5 28.55 112.63 28.42 112.77 28.28 C 112.87 28.15 113.03 27.98 113.3 27.74 C 113.57 27.5 113.97 27.4 114.51 27.4 L 114.47 27.4 Z"
            fill="#ff2e53"/>
        <path
            id="path_9"
            clip-path="url(#clip_path_9)"
            d="M 129.83 32.18 C 128.89 32.69 127.92 33 126.88 33.1 C 125.85 33.2 124.91 33.27 124.14 33.27 C 122.57 33.27 121.16 32.83 119.96 31.94 C 118.75 31.06 118.15 29.64 118.15 27.6 C 118.15 25.7 118.69 24.38 119.79 23.57 C 120.86 22.75 122.27 22.21 123.94 21.94 C 124.17 21.94 124.44 21.91 124.74 21.84 C 125.04 21.77 125.41 21.7 125.81 21.67 C 127.75 21.4 128.72 20.82 128.72 19.94 C 128.72 19.26 128.39 18.82 127.69 18.62 C 126.98 18.41 126.38 18.31 125.78 18.31 C 125.18 18.31 124.61 18.41 124.11 18.58 C 123.6 18.75 123.27 19.09 123.04 19.6 L 118.59 19.6 C 118.75 18.21 119.39 17.06 120.46 16.18 C 121.66 15.16 123.37 14.62 125.58 14.62 C 128.05 14.62 129.93 15.06 131.16 15.9 C 132.44 16.79 133.1 18.04 133.1 19.67 L 133.1 25.81 C 133.1 27.6 132.77 28.99 132.13 30.01 C 131.5 31.03 130.73 31.74 129.86 32.22 L 129.83 32.18 Z M 128.76 23.91 C 128.12 24.21 127.28 24.52 126.18 24.79 L 124.64 25.13 C 123.84 25.37 123.27 25.64 122.9 26.01 C 122.6 26.52 122.43 26.99 122.43 27.5 C 122.43 28.18 122.63 28.72 123.04 29.13 C 123.44 29.47 124.01 29.67 124.74 29.67 C 125.98 29.67 126.95 29.33 127.65 28.59 C 128.35 27.88 128.72 26.89 128.72 25.64 L 128.72 23.94 L 128.76 23.91 Z"
            fill="#ff2e53"/>
        <path
            id="path_10"
            clip-path="url(#clip_path_10)"
            d="M 133.74 32.93 L 133.74 24.25 C 133.74 22.52 134.01 21.02 134.51 19.84 C 135.01 18.65 135.71 17.7 136.62 16.99 C 137.45 16.31 138.42 15.84 139.56 15.5 C 140.7 15.19 141.84 15.02 143.04 15.02 L 143.71 15.02 L 143.71 19.8 L 142.17 19.8 C 140.9 19.8 139.93 20.11 139.29 20.75 C 138.69 21.36 138.36 22.35 138.36 23.7 L 138.36 32.93 L 133.71 32.93 L 133.74 32.93 Z"
            fill="#ff2e53"/>
        <path
            id="path_11"
            clip-path="url(#clip_path_11)"
            d="M 156.42 27.4 L 159.73 27.4 C 159.26 29.3 158.33 30.72 156.96 31.71 C 155.59 32.72 153.85 33.27 151.77 33.27 C 149.26 33.27 147.29 32.45 145.85 30.76 C 144.45 29.13 143.74 26.82 143.74 23.84 C 143.74 20.86 144.45 18.72 145.82 17.13 C 147.22 15.46 149.2 14.65 151.74 14.65 C 154.38 14.65 156.45 15.46 157.93 17.06 C 159.33 18.72 160.03 21.02 160.03 23.98 L 160.03 24.72 C 160.03 24.96 160.03 25.09 159.97 25.2 L 148.49 25.2 C 148.53 26.59 148.86 27.6 149.5 28.28 C 150.07 28.99 150.93 29.37 152.07 29.37 C 152.81 29.37 153.48 29.2 154.01 28.89 C 154.15 28.86 154.28 28.76 154.38 28.65 C 154.48 28.55 154.62 28.42 154.75 28.28 C 154.78 28.15 154.95 27.98 155.25 27.74 C 155.52 27.5 155.95 27.4 156.49 27.4 L 156.42 27.4 Z M 148.46 22.14 L 155.25 22.14 C 155.15 20.92 154.85 20.04 154.31 19.47 C 153.74 18.85 152.91 18.52 151.87 18.52 C 150.9 18.52 150.1 18.82 149.5 19.47 C 148.86 20.11 148.53 20.99 148.49 22.14 L 148.46 22.14 Z"
            fill="#ff2e53"/>
    </g>
</svg>
