<svg
    xmlns="http://www.w3.org/2000/svg"
    viewBox="0 0 50 53"
    id="vector">
    <path
        id="path_1"
        d="M 17.003 40.37 C 9.715 40.37 3.844 34.844 3.844 27.985 L 3.844 23.221 C 3.844 21.125 5.666 19.41 7.893 19.41 L 26.114 19.41 C 28.341 19.41 30.163 21.125 30.163 23.221 L 30.163 27.985 C 30.163 34.844 24.292 40.37 17.003 40.37 Z"
        fill="#ff6969"
        stroke="#a09d9a"
        stroke-width="1.1"
        stroke-linecap="round"
        stroke-linejoin="round"
        fill-rule="evenodd"/>
    <path
        id="path_2"
        d="M 3.945 28.842 C 9.107 30.557 12.954 34.844 13.764 39.989 L 3.945 28.842 Z"
        fill="#ff6969"
        fill-rule="evenodd"/>
    <path
        id="path_8"
        d="M 3.945 28.842 C 9.107 30.557 12.954 34.844 13.764 39.989"
        fill="#00000000"
        stroke="#a09d9a"
        stroke-width="1.1"
        stroke-linecap="round"
        stroke-linejoin="round"/>
    <path
        id="path_9"
        d="M 20.243 39.989 C 21.154 34.844 24.899 30.652 29.859 28.937 L 20.243 39.989 Z"
        fill="#ff6969"
        fill-rule="evenodd"/>
    <path
        id="path_10"
        d="M 20.243 39.989 C 21.154 34.844 24.899 30.652 29.859 28.937"
        fill="#00000000"
        stroke="#a09d9a"
        stroke-width="1.1"
        stroke-linecap="round"
        stroke-linejoin="round"/>
    <path
        id="path_11"
        d="M 3.844 23.221 L 9.918 23.221 L 9.918 26.079 L 3.844 26.079 Z"
        fill="#00000000"
        stroke="#a09d9a"
        stroke-width="1.1"
        stroke-linecap="round"
        stroke-linejoin="round"/>
    <path
        id="path_12"
        d="M 24.089 23.221 L 30.163 23.221 L 30.163 26.079 L 24.089 26.079 Z"
        fill="#00000000"
        stroke="#a09d9a"
        stroke-width="1.1"
        stroke-linecap="round"
        stroke-linejoin="round"/>
    <path
        id="path_13"
        d="M 8 2 L 42 2 C 44.121 2 46.157 2.843 47.657 4.343 C 49.157 5.843 50 7.879 50 10 L 50 43 C 50 45.121 49.157 47.157 47.657 48.657 C 46.157 50.157 44.121 51 42 51 L 8 51 C 5.879 51 3.843 50.157 2.343 48.657 C 0.843 47.157 0 45.121 0 43 L 0 10 C 0 7.879 0.843 5.843 2.343 4.343 C 3.843 2.843 5.879 2 8 2 Z"
        fill="#ff6969"/>
    <path
        id="path_14"
        d="M 34.445 30.04 L 34.445 32.04 L 36.445 32.04 L 36.445 30.04 L 34.445 30.04 Z M 28.81 30.04 L 28.81 28.04 L 26.81 28.04 L 26.81 30.04 L 28.81 30.04 Z M 28.81 35.85 L 28.81 37.85 L 30.81 37.85 L 30.81 35.85 L 28.81 35.85 Z M 22.23 35.85 L 20.23 35.85 L 20.23 37.85 L 22.23 37.85 L 22.23 35.85 Z M 22.23 30.04 L 24.23 30.04 L 24.23 28.04 L 22.23 28.04 L 22.23 30.04 Z M 16.56 30.04 L 14.56 30.04 L 14.56 32.04 L 16.56 32.04 L 16.56 30.04 Z M 16.56 23.845 L 16.56 21.845 L 14.56 21.845 L 14.56 23.845 L 16.56 23.845 Z M 22.23 23.845 L 22.23 25.845 L 24.23 25.845 L 24.23 23.845 L 22.23 23.845 Z M 22.23 18 L 22.23 16 L 20.23 16 L 20.23 18 L 22.23 18 Z M 28.81 18 L 30.81 18 L 30.81 16 L 28.81 16 L 28.81 18 Z M 28.81 23.845 L 26.81 23.845 L 26.81 25.845 L 28.81 25.845 L 28.81 23.845 Z M 34.445 23.845 L 36.445 23.845 L 36.445 21.845 L 34.445 21.845 L 34.445 23.845 Z M 34.445 28.04 L 28.81 28.04 L 28.81 32.04 L 34.445 32.04 L 34.445 28.04 Z M 26.81 30.04 L 26.81 35.85 L 30.81 35.85 L 30.81 30.04 L 26.81 30.04 Z M 28.81 33.85 L 22.23 33.85 L 22.23 37.85 L 28.81 37.85 L 28.81 33.85 Z M 24.23 35.85 L 24.23 30.04 L 20.23 30.04 L 20.23 35.85 L 24.23 35.85 Z M 22.23 28.04 L 16.56 28.04 L 16.56 32.04 L 22.23 32.04 L 22.23 28.04 Z M 18.56 30.04 L 18.56 23.845 L 14.56 23.845 L 14.56 30.04 L 18.56 30.04 Z M 16.56 25.845 L 22.23 25.845 L 22.23 21.845 L 16.56 21.845 L 16.56 25.845 Z M 24.23 23.845 L 24.23 18 L 20.23 18 L 20.23 23.845 L 24.23 23.845 Z M 22.23 20 L 28.81 20 L 28.81 16 L 22.23 16 L 22.23 20 Z M 26.81 18 L 26.81 23.845 L 30.81 23.845 L 30.81 18 L 26.81 18 Z M 28.81 25.845 L 34.445 25.845 L 34.445 21.845 L 28.81 21.845 L 28.81 25.845 Z M 32.445 23.845 L 32.445 30.04 L 36.445 30.04 L 36.445 23.845 L 32.445 23.845 Z"
        fill="#000000"/>
</svg>
