<svg
    xmlns="http://www.w3.org/2000/svg"
    viewBox="0 0 51 50"
    id="vector">
    <path
        id="path_1"
        d="M 4 0 L 46.007 0 C 47.067 0 48.086 0.422 48.835 1.172 C 49.585 1.921 50.007 2.94 50.007 4 L 50.007 45.78 C 50.007 46.84 49.585 47.859 48.835 48.608 C 48.086 49.358 47.067 49.78 46.007 49.78 L 4 49.78 C 2.94 49.78 1.921 49.358 1.172 48.608 C 0.422 47.859 0 46.84 0 45.78 L 0 4 C 0 2.94 0.422 1.921 1.172 1.172 C 1.921 0.422 2.94 0 4 0 Z"
        fill="#fdcc80"/>
    <path
        id="path_2"
        d="M 30.114 22.962 L 29.602 22.649 L 29.044 23.563 L 30.114 23.563 L 30.114 22.962 Z M 28.575 18.059 L 28.009 18.258 L 28.112 18.551 L 28.411 18.636 L 28.575 18.059 Z M 28.387 17.525 L 27.811 17.694 L 27.816 17.709 L 27.821 17.724 L 28.387 17.525 Z M 21.619 17.525 L 22.185 17.724 L 22.191 17.709 L 22.195 17.694 L 21.619 17.525 Z M 21.431 18.059 L 21.595 18.636 L 21.894 18.551 L 21.997 18.258 L 21.431 18.059 Z M 19.853 22.962 L 19.853 23.563 L 20.951 23.563 L 20.358 22.638 L 19.853 22.962 Z M 19.819 22.962 L 19.819 22.362 L 19.219 22.362 L 19.219 22.962 L 19.819 22.962 Z M 19.819 23.769 L 20.258 24.178 L 20.42 24.005 L 20.42 23.769 L 19.819 23.769 Z M 30.358 23.962 L 30.358 23.362 L 29.075 23.362 L 29.897 24.347 L 30.358 23.962 Z M 30.586 23.962 L 30.586 24.563 L 31.186 24.563 L 31.186 23.962 L 30.586 23.962 Z M 30.586 22.962 L 31.186 22.962 L 31.186 22.362 L 30.586 22.362 L 30.586 22.962 Z M 30.043 21.154 C 30.043 21.677 29.865 22.22 29.602 22.649 L 30.626 23.276 C 30.986 22.688 31.243 21.931 31.243 21.154 L 30.043 21.154 Z M 28.411 18.636 C 29.239 18.871 30.043 19.882 30.043 21.154 L 31.243 21.154 C 31.243 19.438 30.167 17.887 28.739 17.482 L 28.411 18.636 Z M 27.821 17.724 L 28.009 18.258 L 29.141 17.859 L 28.953 17.326 L 27.821 17.724 Z M 27.223 13.682 C 27.223 15.023 27.42 16.361 27.811 17.694 L 28.963 17.356 C 28.602 16.128 28.423 14.904 28.423 13.682 L 27.223 13.682 Z M 25.003 11.08 C 26.2 11.08 27.223 12.125 27.223 13.682 L 28.423 13.682 C 28.423 11.61 27.002 9.88 25.003 9.88 L 25.003 11.08 Z M 22.783 13.682 C 22.783 12.125 23.806 11.08 25.003 11.08 L 25.003 9.88 C 23.004 9.88 21.583 11.61 21.583 13.682 L 22.783 13.682 Z M 22.195 17.694 C 22.586 16.361 22.783 15.023 22.783 13.682 L 21.583 13.682 C 21.583 14.904 21.404 16.128 21.044 17.356 L 22.195 17.694 Z M 21.997 18.258 L 22.185 17.724 L 21.053 17.326 L 20.865 17.859 L 21.997 18.258 Z M 19.963 21.154 C 19.963 19.882 20.767 18.871 21.595 18.636 L 21.267 17.482 C 19.839 17.887 18.763 19.438 18.763 21.154 L 19.963 21.154 Z M 20.358 22.638 C 20.105 22.244 19.963 21.711 19.963 21.154 L 18.763 21.154 C 18.763 21.897 18.948 22.664 19.348 23.287 L 20.358 22.638 Z M 19.819 23.563 L 19.853 23.563 L 19.853 22.362 L 19.819 22.362 L 19.819 23.563 Z M 20.42 23.769 L 20.42 22.962 L 19.219 22.962 L 19.219 23.769 L 20.42 23.769 Z M 19.023 27.559 C 19.023 26.193 19.485 25.009 20.258 24.178 L 19.38 23.36 C 18.378 24.437 17.823 25.924 17.823 27.559 L 19.023 27.559 Z M 19.023 33.963 L 19.023 27.559 L 17.823 27.559 L 17.823 33.963 L 19.023 33.963 Z M 19.023 38.302 L 19.023 33.963 L 17.823 33.963 L 17.823 38.302 L 19.023 38.302 Z M 19.423 38.7 C 19.201 38.7 19.023 38.522 19.023 38.302 L 17.823 38.302 C 17.823 39.186 18.541 39.9 19.423 39.9 L 19.423 38.7 Z M 23.123 38.7 L 19.423 38.7 L 19.423 39.9 L 23.123 39.9 L 23.123 38.7 Z M 26.883 38.7 L 23.123 38.7 L 23.123 39.9 L 26.883 39.9 L 26.883 38.7 Z M 30.583 38.7 L 26.883 38.7 L 26.883 39.9 L 30.583 39.9 L 30.583 38.7 Z M 30.983 38.302 C 30.983 38.521 30.805 38.7 30.583 38.7 L 30.583 39.9 C 31.466 39.9 32.183 39.186 32.183 38.302 L 30.983 38.302 Z M 30.983 33.963 L 30.983 38.302 L 32.183 38.302 L 32.183 33.963 L 30.983 33.963 Z M 30.983 27.559 L 30.983 33.963 L 32.183 33.963 L 32.183 27.559 L 30.983 27.559 Z M 29.897 24.347 C 30.58 25.165 30.983 26.283 30.983 27.559 L 32.183 27.559 C 32.183 26.031 31.699 24.633 30.818 23.578 L 29.897 24.347 Z M 30.586 23.362 L 30.358 23.362 L 30.358 24.563 L 30.586 24.563 L 30.586 23.362 Z M 29.986 22.962 L 29.986 23.962 L 31.186 23.962 L 31.186 22.962 L 29.986 22.962 Z M 30.114 23.563 L 30.586 23.563 L 30.586 22.362 L 30.114 22.362 L 30.114 23.563 Z M 19.577 36.552 L 21.457 36.552 L 21.457 35.352 L 19.577 35.352 L 19.577 36.552 Z M 18.037 35.686 C 18.037 35.99 18.222 36.184 18.348 36.278 C 18.474 36.37 18.616 36.423 18.732 36.456 C 18.97 36.524 19.266 36.552 19.577 36.552 L 19.577 35.352 C 19.324 35.352 19.15 35.328 19.059 35.302 C 19.01 35.288 19.023 35.284 19.061 35.312 C 19.099 35.34 19.237 35.461 19.237 35.686 L 18.037 35.686 Z M 19.577 34.819 C 19.266 34.819 18.97 34.847 18.732 34.915 C 18.616 34.948 18.474 35.001 18.348 35.094 C 18.222 35.187 18.037 35.381 18.037 35.686 L 19.237 35.686 C 19.237 35.91 19.099 36.031 19.061 36.059 C 19.023 36.087 19.01 36.083 19.059 36.069 C 19.15 36.043 19.324 36.019 19.577 36.019 L 19.577 34.819 Z M 21.457 34.819 L 19.577 34.819 L 19.577 36.019 L 21.457 36.019 L 21.457 34.819 Z M 22.997 35.686 C 22.997 35.381 22.812 35.187 22.686 35.094 C 22.56 35.001 22.418 34.948 22.302 34.915 C 22.064 34.847 21.768 34.819 21.457 34.819 L 21.457 36.019 C 21.71 36.019 21.884 36.043 21.975 36.069 C 22.024 36.083 22.011 36.087 21.973 36.059 C 21.935 36.031 21.797 35.91 21.797 35.686 L 22.997 35.686 Z M 21.457 36.552 C 21.768 36.552 22.064 36.524 22.302 36.456 C 22.418 36.423 22.56 36.37 22.686 36.278 C 22.812 36.184 22.997 35.99 22.997 35.686 L 21.797 35.686 C 21.797 35.461 21.935 35.34 21.973 35.312 C 22.011 35.284 22.024 35.288 21.975 35.302 C 21.884 35.328 21.71 35.352 21.457 35.352 L 21.457 36.552 Z M 19.237 32.532 C 19.237 32.756 19.099 32.877 19.061 32.905 C 19.023 32.933 19.01 32.93 19.059 32.916 C 19.15 32.89 19.324 32.865 19.577 32.865 L 19.577 31.665 C 19.266 31.665 18.97 31.694 18.732 31.761 C 18.616 31.794 18.474 31.847 18.348 31.94 C 18.222 32.033 18.037 32.228 18.037 32.532 L 19.237 32.532 Z M 19.577 32.199 C 19.324 32.199 19.15 32.174 19.059 32.148 C 19.01 32.134 19.023 32.13 19.061 32.158 C 19.099 32.187 19.237 32.308 19.237 32.532 L 18.037 32.532 C 18.037 32.836 18.222 33.03 18.348 33.124 C 18.474 33.217 18.616 33.27 18.732 33.303 C 18.97 33.37 19.266 33.399 19.577 33.399 L 19.577 32.199 Z M 20.517 32.199 L 19.577 32.199 L 19.577 33.399 L 20.517 33.399 L 20.517 32.199 Z M 20.857 32.532 C 20.857 32.308 20.995 32.187 21.033 32.158 C 21.071 32.13 21.083 32.134 21.035 32.148 C 20.944 32.174 20.77 32.199 20.517 32.199 L 20.517 33.399 C 20.828 33.399 21.124 33.37 21.362 33.303 C 21.478 33.27 21.62 33.217 21.746 33.124 C 21.872 33.03 22.057 32.836 22.057 32.532 L 20.857 32.532 Z M 20.517 32.865 C 20.77 32.865 20.944 32.89 21.035 32.916 C 21.083 32.93 21.071 32.933 21.033 32.905 C 20.995 32.877 20.857 32.756 20.857 32.532 L 22.057 32.532 C 22.057 32.228 21.872 32.033 21.746 31.94 C 21.62 31.847 21.478 31.794 21.362 31.761 C 21.124 31.694 20.828 31.665 20.517 31.665 L 20.517 32.865 Z M 19.577 32.865 L 20.517 32.865 L 20.517 31.665 L 19.577 31.665 L 19.577 32.865 Z M 19.577 30.245 L 21.457 30.245 L 21.457 29.045 L 19.577 29.045 L 19.577 30.245 Z M 18.037 29.378 C 18.037 29.682 18.222 29.877 18.348 29.97 C 18.474 30.063 18.616 30.116 18.732 30.149 C 18.97 30.216 19.266 30.245 19.577 30.245 L 19.577 29.045 C 19.324 29.045 19.15 29.02 19.059 28.994 C 19.01 28.98 19.023 28.977 19.061 29.005 C 19.099 29.033 19.237 29.154 19.237 29.378 L 18.037 29.378 Z M 19.577 28.511 C 19.266 28.511 18.97 28.54 18.732 28.608 C 18.616 28.64 18.474 28.693 18.348 28.786 C 18.222 28.879 18.037 29.074 18.037 29.378 L 19.237 29.378 C 19.237 29.602 19.099 29.723 19.061 29.752 C 19.023 29.78 19.01 29.776 19.059 29.762 C 19.15 29.736 19.324 29.711 19.577 29.711 L 19.577 28.511 Z M 21.457 28.511 L 19.577 28.511 L 19.577 29.711 L 21.457 29.711 L 21.457 28.511 Z M 22.997 29.378 C 22.997 29.074 22.812 28.879 22.686 28.786 C 22.56 28.693 22.418 28.64 22.302 28.608 C 22.064 28.54 21.768 28.511 21.457 28.511 L 21.457 29.711 C 21.71 29.711 21.884 29.736 21.975 29.762 C 22.024 29.776 22.011 29.78 21.973 29.752 C 21.935 29.723 21.797 29.602 21.797 29.378 L 22.997 29.378 Z M 21.457 30.245 C 21.768 30.245 22.064 30.216 22.302 30.149 C 22.418 30.116 22.56 30.063 22.686 29.97 C 22.812 29.877 22.997 29.682 22.997 29.378 L 21.797 29.378 C 21.797 29.154 21.935 29.033 21.973 29.005 C 22.011 28.977 22.024 28.98 21.975 28.994 C 21.884 29.02 21.71 29.045 21.457 29.045 L 21.457 30.245 Z"
        fill="#000000"/>
</svg>
